<svg width="30" height="43" viewBox="0 0 30 43" fill="none" xmlns="http://www.w3.org/2000/svg">
<path d="M14.7601 1.5C7.43941 1.5 1.5 7.37074 1.5 14.6013C1.5 22.9212 10.34 36.1057 13.586 40.6596C13.7207 40.8519 13.8973 41.0083 14.1014 41.1162C14.3054 41.224 14.5311 41.2802 14.7601 41.2802C14.989 41.2802 15.2147 41.224 15.4188 41.1162C15.6228 41.0083 15.7994 40.8519 15.9341 40.6596C19.1801 36.1076 28.0201 22.9279 28.0201 14.6013C28.0201 7.37074 22.0807 1.5 14.7601 1.5Z" stroke="#001F86" stroke-width="3" stroke-linecap="round" stroke-linejoin="round"/>
<path d="M14.7601 21.3901C17.6894 21.3901 20.0641 19.0154 20.0641 16.0861C20.0641 13.1567 17.6894 10.782 14.7601 10.782C11.8307 10.782 9.45605 13.1567 9.45605 16.0861C9.45605 19.0154 11.8307 21.3901 14.7601 21.3901Z" stroke="#001F86" stroke-width="3" stroke-linecap="round" stroke-linejoin="round"/>
</svg>
