<svg width="35" height="35" viewBox="0 0 35 35" fill="none" xmlns="http://www.w3.org/2000/svg">
<path d="M32.3322 26.4372C31.1173 25.2133 28.1751 23.4271 26.7475 22.7072C24.8885 21.7709 24.7355 21.6944 23.2743 22.7799C22.2997 23.5043 21.6517 24.1515 20.5111 23.9082C19.3704 23.665 16.8917 22.2934 14.7214 20.13C12.551 17.9667 11.0997 15.4163 10.8557 14.2795C10.6117 13.1428 11.2696 12.5025 11.9872 11.5256C12.9985 10.1487 12.922 9.91921 12.0576 8.06033C11.3836 6.61453 9.54522 3.69999 8.31659 2.49133C7.00228 1.19318 7.00228 1.42267 6.1554 1.77456C5.46594 2.06462 4.80449 2.41722 4.17935 2.82792C2.95531 3.64109 2.27597 4.31656 1.80089 5.33167C1.32581 6.34679 1.11237 8.72662 3.5658 13.1833C6.01923 17.6401 7.74053 19.9189 11.3032 23.4714C14.8659 27.024 17.6055 28.9341 21.6104 31.1801C26.5647 33.9546 28.465 33.4138 29.4832 32.9395C30.5015 32.4652 31.1801 31.792 31.9948 30.5681C32.4066 29.944 32.76 29.2834 33.0505 28.5945C33.4032 27.7507 33.6327 27.7507 32.3322 26.4372Z" stroke="#001F86" stroke-width="3" stroke-miterlimit="10"/>
</svg>
