<svg width="26" height="26" viewBox="0 0 26 26" fill="none" xmlns="http://www.w3.org/2000/svg">
<path d="M12.9904 0C5.81669 0 0 5.81409 0 12.9846C0 18.3002 3.20121 22.868 7.77685 24.8795C7.74205 23.9752 7.77105 22.8854 8.00302 21.8999C8.25239 20.8449 9.67322 14.8222 9.67322 14.8222C9.67322 14.8222 9.25567 13.9932 9.25567 12.7701C9.25567 10.8456 10.3691 9.40805 11.761 9.40805C12.944 9.40805 13.5123 10.2949 13.5123 11.3557C13.5123 12.5441 12.7526 14.3179 12.3641 15.9641C12.0393 17.3437 13.0542 18.4625 14.417 18.4625C16.8759 18.4625 18.5345 15.3033 18.5345 11.5586C18.5345 8.71245 16.615 6.58506 13.1296 6.58506C9.19188 6.58506 6.73298 9.52398 6.73298 12.8049C6.73298 13.9353 7.06934 14.7352 7.59127 15.3497C7.82904 15.6337 7.86384 15.7496 7.77685 16.0743C7.71306 16.3119 7.57387 16.8858 7.51008 17.1177C7.42309 17.4481 7.15633 17.564 6.86056 17.4423C5.04538 16.7003 4.19869 14.7178 4.19869 12.4803C4.19869 8.7936 7.31291 4.37071 13.4834 4.37071C18.4417 4.37071 21.7067 7.95887 21.7067 11.8079C21.7067 16.9032 18.8709 20.7058 14.6954 20.7058C13.292 20.7058 11.9755 19.9465 11.5232 19.0885C11.5232 19.0885 10.7693 22.0796 10.6069 22.6593C10.3343 23.6621 9.795 24.6592 9.30206 25.4417C10.4978 25.7943 11.7379 25.9739 12.9846 25.975C20.1583 25.975 25.975 20.1609 25.975 12.9904C25.975 5.81989 20.1641 0 12.9904 0Z" fill="black"/>
</svg>
