<svg width="28" height="22" viewBox="0 0 28 22" fill="none" xmlns="http://www.w3.org/2000/svg">
<path d="M27.3955 2.59688C26.3679 3.0434 25.2806 3.33757 24.168 3.47011C25.3373 2.78544 26.2166 1.69771 26.641 0.410942C25.5355 1.05736 24.3281 1.51091 23.0705 1.75218C22.5409 1.19715 21.9039 0.755615 21.1984 0.454402C20.4929 0.153188 19.7334 -0.0014082 18.9663 9.66516e-06C15.8603 9.66516e-06 13.3468 2.47702 13.3468 5.53048C13.3446 5.95521 13.3932 6.37867 13.4917 6.79182C11.2645 6.68741 9.08363 6.11925 7.08859 5.12369C5.09354 4.12813 3.32826 2.7271 1.9057 1.01022C1.40663 1.85156 1.1427 2.8115 1.14148 3.78972C1.14148 5.70741 2.14199 7.40251 3.65274 8.3956C2.75766 8.37436 1.88093 8.13745 1.09696 7.705V7.77349C1.09696 10.456 3.03748 12.6876 5.60581 13.1955C5.12284 13.3243 4.62515 13.3895 4.12531 13.3896C3.77064 13.3902 3.41678 13.3558 3.06887 13.2868C3.78287 15.4842 5.86093 17.0823 8.32254 17.1279C6.32231 18.6695 3.86655 19.5026 1.34124 19.4965C0.892991 19.4958 0.445158 19.4692 0 19.4166C2.569 21.057 5.55527 21.9247 8.60334 21.9164C18.9543 21.9164 24.6092 13.4866 24.6092 6.17542C24.6092 5.93571 24.6029 5.696 24.5915 5.46199C25.6891 4.68125 26.6386 3.71103 27.3955 2.59688Z" fill="black"/>
</svg>
